<?xml version="1.0" standalone="no"?>
<!DOCTYPE svg PUBLIC "-//W3C//DTD SVG 20010904//EN"
 "http://www.w3.org/TR/2001/REC-SVG-20010904/DTD/svg10.dtd">
<svg version="1.0" xmlns="http://www.w3.org/2000/svg"
 width="80" viewBox="0 0 611.000000 170.000000"
 preserveAspectRatio="xMidYMid meet">

<g transform="translate(0.000000,170.000000) scale(0.100000,-0.100000)"
fill="#000000" stroke="none">
<path d="M698 1610 c-259 -47 -471 -205 -583 -435 -50 -102 -67 -175 -72 -311
-6 -148 14 -244 81 -379 118 -236 343 -393 610 -426 365 -45 722 193 836 556
34 107 39 283 11 398 -66 278 -278 500 -551 577 -84 23 -257 34 -332 20z m487
-485 l25 -24 0 -260 c0 -143 -3 -267 -6 -276 -16 -41 -48 -45 -384 -45 -336 0
-368 4 -384 45 -3 9 -6 133 -6 276 l0 260 25 24 24 25 341 0 341 0 24 -25z"/>
<path d="M520 1066 c0 -5 270 -173 291 -181 9 -4 70 28 159 85 79 49 145 92
148 95 3 3 -130 5 -296 5 -166 0 -302 -2 -302 -4z"/>
<path d="M510 796 l0 -196 310 0 310 0 0 196 0 196 -22 -14 c-13 -8 -83 -52
-155 -98 l-133 -82 -132 82 c-73 46 -143 90 -155 98 l-23 14 0 -196z"/>
<path d="M5457 1409 c-72 -42 -57 -196 23 -229 117 -48 209 109 123 210 -22
26 -31 30 -76 30 -29 0 -60 -5 -70 -11z"/>
<path d="M5750 870 l0 -500 95 0 95 0 0 500 0 500 -95 0 -95 0 0 -500z"/>
<path d="M1870 828 l0 -463 305 3 306 3 -3 97 -3 97 -208 3 -208 2 3 78 3 77
163 3 162 2 0 100 0 100 -165 0 -166 0 3 78 3 77 208 3 207 2 0 100 0 100
-305 0 -305 0 0 -462z"/>
<path d="M3502 1105 c-18 -8 -47 -24 -63 -35 l-29 -21 0 26 0 26 -97 -3 -98
-3 -3 -362 -2 -363 99 0 99 0 4 207 c3 188 5 211 24 243 44 76 133 102 202 60
56 -34 62 -64 62 -300 l0 -210 100 0 100 0 0 198 c0 185 1 201 23 242 42 84
132 114 205 70 56 -34 62 -64 62 -300 l0 -210 100 0 100 0 0 220 c0 124 -5
242 -11 272 -33 156 -131 245 -280 256 -87 6 -158 -25 -214 -92 l-39 -46 -18
29 c-22 34 -83 78 -135 97 -50 17 -149 17 -191 -1z"/>
<path d="M4749 1107 c-129 -48 -216 -161 -242 -313 -29 -169 64 -359 208 -425
60 -28 201 -26 258 2 23 12 50 28 60 37 16 14 17 13 17 -11 l0 -27 100 0 100
0 -2 363 -3 362 -95 0 c-91 0 -95 -1 -98 -22 -3 -22 -4 -22 -59 9 -46 26 -69
32 -132 35 -48 2 -90 -2 -112 -10z m183 -212 c93 -63 105 -215 24 -303 -61
-68 -151 -69 -219 -4 -85 80 -73 247 22 309 48 32 124 32 173 -2z"/>
<path d="M5430 730 l0 -360 100 0 100 0 -2 357 -3 358 -97 3 -98 3 0 -361z"/>
<path d="M2554 857 c-3 -8 -4 -54 -2 -103 l3 -89 230 0 230 0 0 100 0 100
-228 3 c-183 2 -228 0 -233 -11z"/>
</g>
</svg>
