<?xml version="1.0" standalone="no"?>
<!DOCTYPE svg PUBLIC "-//W3C//DTD SVG 20010904//EN"
 "http://www.w3.org/TR/2001/REC-SVG-20010904/DTD/svg10.dtd">
<svg version="1.0" xmlns="http://www.w3.org/2000/svg"
 width="72" height="21" viewBox="0 0 600.000000 179.000000"
 preserveAspectRatio="xMidYMid meet">

<g transform="translate(0.000000,179.000000) scale(0.100000,-0.100000)"
fill="#000000" stroke="none">
<path d="M940 1663 c-288 -38 -535 -225 -642 -486 -132 -324 -36 -698 237
-920 59 -47 226 -137 256 -137 30 0 39 24 39 97 l0 73 -70 0 c-110 0 -157 31
-206 135 -10 22 -38 58 -61 81 -48 45 -50 49 -28 58 31 11 96 -26 137 -78 54
-68 83 -86 140 -86 60 0 98 15 98 37 0 10 9 33 21 52 11 18 19 34 17 35 -2 1
-32 8 -67 15 -121 24 -209 89 -253 187 -34 79 -41 233 -12 309 4 11 19 38 34
60 20 29 25 46 19 60 -11 29 -11 90 2 141 11 41 14 44 45 44 19 0 66 -17 111
-40 76 -39 79 -40 130 -30 68 15 218 15 286 0 51 -10 54 -9 130 30 46 24 92
40 112 40 32 0 35 -3 46 -42 6 -25 9 -70 5 -107 -4 -52 -2 -68 13 -90 90 -126
72 -351 -37 -465 -46 -48 -138 -93 -208 -102 -30 -3 -54 -8 -54 -10 0 -1 10
-20 23 -41 20 -34 22 -54 25 -188 2 -83 8 -156 14 -162 17 -20 39 -16 127 27
187 91 328 241 400 429 42 109 55 194 48 330 -5 120 -30 218 -78 314 -57 113
-177 244 -284 312 -63 40 -184 89 -254 104 -62 13 -210 21 -261 14z"/>
<path d="M2370 1346 c-77 -23 -98 -34 -146 -78 -86 -79 -124 -194 -124 -378 0
-295 113 -434 370 -456 73 -6 177 12 253 45 l47 20 0 231 0 231 -157 -3 -158
-3 0 -75 0 -75 60 -5 60 -5 3 -87 3 -87 -36 -7 c-20 -3 -57 -4 -81 0 -122 16
-173 99 -174 282 0 145 45 235 136 270 44 17 146 16 241 -2 30 -6 32 -4 42 32
6 22 14 58 17 81 l7 41 -54 17 c-72 23 -250 29 -309 11z"/>
<path d="M3610 885 l0 -436 93 3 92 3 2 185 2 185 123 0 123 0 3 -188 2 -188
93 3 92 3 3 433 2 432 -95 0 -95 0 0 -160 0 -160 -125 0 -124 0 -3 158 -3 157
-92 3 -93 3 0 -436z"/>
<path d="M4950 885 l0 -435 66 0 c57 0 67 3 71 20 3 11 6 20 7 20 0 0 23 -11
49 -24 90 -46 210 -44 279 5 80 57 121 262 82 411 -32 125 -96 178 -215 178
-35 -1 -82 -7 -104 -15 -22 -8 -44 -15 -48 -15 -4 0 -7 64 -6 143 l1 142 -91
3 -91 3 0 -436z m324 14 c40 -19 60 -84 53 -178 -6 -88 -17 -116 -49 -127 -32
-10 -88 -7 -121 7 l-28 12 3 136 3 136 35 12 c45 15 73 16 104 2z"/>
<path d="M2891 1274 c-58 -48 -47 -135 20 -170 43 -22 91 -11 123 27 81 96
-47 224 -143 143z"/>
<path d="M3210 1131 l0 -89 -50 -12 -50 -12 0 -64 0 -64 50 0 50 0 0 -157 c0
-134 3 -164 20 -200 34 -75 139 -115 245 -93 l55 11 0 70 0 69 -50 0 c-83 0
-90 14 -90 170 l0 129 68 3 67 3 0 75 0 75 -67 3 -67 3 -3 82 -3 82 -87 3 -88
3 0 -90z"/>
<path d="M2865 1038 c-3 -7 -4 -141 -3 -298 l3 -285 90 0 90 0 0 295 0 295
-88 3 c-65 2 -89 -1 -92 -10z"/>
<path d="M4324 1036 c-3 -7 -4 -119 -2 -247 3 -225 4 -235 27 -272 56 -91 209
-112 345 -46 37 18 38 18 43 -1 5 -17 14 -20 69 -20 l64 0 -2 298 -3 297 -90
0 -90 0 -3 -216 -2 -216 -26 -11 c-38 -18 -109 -15 -125 5 -11 12 -15 69 -19
227 l-5 211 -88 3 c-69 2 -89 0 -93 -12z"/>
</g>
</svg>
