<?xml version="1.0" standalone="no"?>
<!DOCTYPE svg PUBLIC "-//W3C//DTD SVG 20010904//EN"
 "http://www.w3.org/TR/2001/REC-SVG-20010904/DTD/svg10.dtd">
<svg version="1.0" xmlns="http://www.w3.org/2000/svg"
 width="72" height="21" viewBox="0 0 600.000000 179.000000"
 preserveAspectRatio="xMidYMid meet">

<g transform="translate(0.000000,179.000000) scale(0.100000,-0.100000)"
fill="#000000" stroke="none">
<path d="M950 1663 c-288 -38 -535 -225 -642 -486 -132 -324 -36 -698 237
-920 59 -47 226 -137 256 -137 30 0 39 24 39 97 l0 73 -70 0 c-110 0 -157 31
-206 135 -10 22 -38 58 -61 81 -48 45 -50 49 -28 58 31 11 96 -26 137 -78 54
-68 83 -86 140 -86 60 0 98 15 98 37 0 10 9 33 21 52 11 18 19 34 17 35 -2 1
-32 8 -67 15 -121 24 -209 89 -253 187 -34 79 -41 233 -12 309 4 11 19 38 34
60 20 29 25 46 19 60 -11 29 -11 90 2 141 11 41 14 44 45 44 19 0 66 -17 111
-40 76 -39 79 -40 130 -30 68 15 218 15 286 0 51 -10 54 -9 130 30 46 24 92
40 112 40 32 0 35 -3 46 -42 6 -25 9 -70 5 -107 -4 -52 -2 -68 13 -90 90 -126
72 -351 -37 -465 -46 -48 -138 -93 -208 -102 -30 -3 -54 -8 -54 -10 0 -1 10
-20 23 -41 20 -34 22 -54 25 -188 2 -83 8 -156 14 -162 17 -20 39 -16 127 27
187 91 328 241 400 429 42 109 55 194 48 330 -5 120 -30 218 -78 314 -57 113
-177 244 -284 312 -63 40 -184 89 -254 104 -62 13 -210 21 -261 14z"/>
<path d="M2258 1406 c-143 -41 -225 -123 -275 -275 -24 -73 -30 -358 -8 -440
33 -128 91 -210 183 -259 144 -77 364 -77 515 -1 l37 19 0 260 0 260 -175 0
-176 0 3 -92 3 -93 68 -3 67 -3 0 -98 0 -98 -55 -7 c-193 -22 -288 102 -272
357 7 115 21 157 70 213 60 68 165 90 298 63 96 -20 90 -23 112 63 11 43 17
84 14 92 -16 42 -306 72 -409 42z"/>
<path d="M3665 1368 c-3 -7 -4 -229 -3 -493 l3 -480 102 -3 103 -3 2 213 3
213 142 3 143 3 2 -213 3 -213 103 -3 102 -3 0 496 0 496 -102 -3 -103 -3 -3
-183 -2 -183 -143 3 -142 3 -3 183 -2 182 -101 0 c-70 0 -101 -4 -104 -12z"/>
<path d="M5180 885 l0 -495 75 0 c71 0 75 1 81 24 l6 24 34 -20 c144 -85 336
-50 399 72 25 49 45 160 45 255 0 246 -113 365 -314 333 -32 -5 -71 -15 -87
-24 l-29 -14 -2 167 -3 168 -102 3 -103 3 0 -496z m385 1 c13 -13 28 -41 34
-62 23 -82 6 -227 -29 -259 -34 -31 -179 -16 -180 19 -2 65 0 299 2 301 13 10
71 24 106 24 32 1 49 -5 67 -23z"/>
<path d="M2893 1348 c-73 -19 -105 -107 -63 -176 24 -39 62 -55 114 -49 56 8
88 43 94 105 4 44 1 53 -24 81 -34 37 -77 51 -121 39z"/>
<path d="M3210 1162 l0 -99 -52 -14 -53 -14 -3 -73 -3 -72 56 0 55 0 0 -177
c0 -203 9 -236 75 -291 51 -42 146 -59 228 -42 l57 11 0 80 0 79 -55 0 c-90 0
-95 9 -95 190 l0 149 73 3 72 3 0 85 0 85 -72 3 -72 3 -3 92 -3 92 -102 3
-103 3 0 -99z"/>
<path d="M2825 1057 c-3 -7 -4 -158 -3 -337 l3 -325 100 0 100 0 3 329 c2 257
-1 331 -10 338 -22 13 -188 10 -193 -5z"/>
<path d="M4474 1057 c-3 -8 -4 -136 -2 -284 l3 -270 28 -42 c63 -96 241 -119
379 -50 47 24 54 24 61 -1 5 -19 12 -21 74 -18 l68 3 3 329 c2 257 -1 331 -10
338 -23 14 -184 10 -197 -6 -8 -10 -11 -82 -11 -237 0 -123 1 -229 0 -236 -1
-30 -130 -45 -166 -19 -18 13 -19 32 -24 258 l-5 243 -98 3 c-77 2 -99 0 -103
-11z"/>
</g>
</svg>
