<?xml version="1.0" standalone="no"?>
<!DOCTYPE svg PUBLIC "-//W3C//DTD SVG 20010904//EN"
 "http://www.w3.org/TR/2001/REC-SVG-20010904/DTD/svg10.dtd">
<svg version="1.0" xmlns="http://www.w3.org/2000/svg"
 width="70" viewBox="0 0 387.000000 110.000000"
 preserveAspectRatio="xMidYMid meet">

<g transform="translate(0.000000,110.000000) scale(0.100000,-0.100000)"
fill="#000000" stroke="none">
<path d="M2907 992 c-15 -17 -17 -64 -17 -464 0 -418 1 -446 18 -461 17 -15
64 -17 464 -17 418 0 446 1 461 18 15 17 17 64 17 464 0 418 -1 446 -18 461
-17 15 -64 17 -464 17 -418 0 -446 -1 -461 -18z m245 -130 c10 -9 20 -31 24
-49 5 -27 1 -37 -25 -64 -27 -26 -37 -30 -63 -25 -60 12 -90 63 -66 114 25 51
90 63 130 24z m473 -210 c17 -10 41 -39 55 -67 23 -47 25 -62 28 -222 l4 -173
-66 0 -66 0 0 130 c0 94 -4 140 -16 169 -29 72 -107 79 -164 15 l-30 -35 0
-139 0 -140 -65 0 -65 0 0 235 0 235 60 0 60 0 0 -32 0 -32 29 28 c59 56 164
69 236 28z m-465 -227 l0 -235 -65 0 -65 0 0 235 0 235 65 0 65 0 0 -235z"/>
<path d="M499 861 c-67 -68 -6 -164 88 -139 65 17 80 105 26 148 -37 29 -79
26 -114 -9z"/>
<path d="M10 530 l0 -350 208 2 207 3 0 70 0 70 -137 3 -138 3 0 274 0 275
-70 0 -70 0 0 -350z"/>
<path d="M1240 530 l0 -351 73 3 72 3 5 109 5 110 88 -112 88 -112 85 0 c46 0
84 2 84 5 0 3 -47 64 -105 134 l-104 128 99 107 c55 59 100 109 100 112 0 2
-40 4 -89 4 l-89 0 -79 -91 -78 -90 -5 193 -5 193 -72 3 -73 3 0 -351z"/>
<path d="M2610 765 c0 -63 -2 -115 -4 -115 -2 0 -17 7 -32 15 -43 22 -139 19
-191 -6 -85 -41 -126 -115 -126 -229 0 -121 41 -190 138 -236 66 -31 127 -31
183 1 40 23 42 23 42 4 0 -18 6 -20 68 -17 l67 3 0 345 0 345 -72 3 -73 3 0
-116z m-24 -249 c31 -31 34 -40 34 -91 0 -49 -4 -60 -29 -86 -24 -23 -38 -29
-73 -29 -69 1 -108 44 -108 120 0 52 13 76 53 100 48 30 83 26 123 -14z"/>
<path d="M945 680 c-35 -7 -72 -26 -97 -48 -17 -14 -18 -13 -18 11 0 27 -1 27
-70 27 l-70 0 0 -245 0 -246 73 3 72 3 5 148 c5 148 5 149 33 173 51 43 115
44 139 1 8 -14 15 -77 18 -172 l5 -150 73 -3 72 -3 0 155 c0 85 -5 178 -11
206 -11 52 -45 101 -83 122 -28 16 -104 25 -141 18z"/>
<path d="M1841 654 c-93 -47 -136 -128 -129 -248 4 -91 40 -156 110 -199 56
-35 150 -46 225 -28 44 11 143 68 143 82 0 3 -21 20 -46 39 l-46 33 -38 -22
c-25 -14 -55 -21 -90 -21 -46 0 -56 4 -86 34 -19 19 -34 39 -34 45 0 8 56 11
181 11 l182 0 -6 64 c-10 110 -61 188 -144 223 -18 7 -63 13 -101 13 -54 0
-79 -6 -121 -26z m179 -99 c28 -15 50 -42 50 -64 0 -7 -39 -11 -110 -11 -60 0
-110 4 -110 9 0 15 42 62 64 71 33 13 74 11 106 -5z"/>
<path d="M490 425 l0 -245 70 0 70 0 0 245 0 245 -70 0 -70 0 0 -245z"/>
</g>
</svg>
