<?xml version="1.0" standalone="no"?>
<!DOCTYPE svg PUBLIC "-//W3C//DTD SVG 20010904//EN"
 "http://www.w3.org/TR/2001/REC-SVG-20010904/DTD/svg10.dtd">
<svg version="1.0" xmlns="http://www.w3.org/2000/svg"
 width="90" viewBox="0 0 592.000000 150.000000"
 preserveAspectRatio="xMidYMid meet">

<g transform="translate(0.000000,150.000000) scale(0.100000,-0.100000)"
fill="#000000" stroke="none">
<path d="M5200 1125 l0 -315 65 0 65 0 0 315 0 315 -65 0 -65 0 0 -315z"/>
<path d="M535 1400 c-111 -37 -193 -116 -235 -226 -19 -51 -20 -77 -20 -429 0
-352 1 -378 20 -429 43 -113 125 -191 241 -227 63 -19 86 -20 435 -17 l369 3
67 33 c82 40 157 119 190 200 23 56 23 63 23 437 0 374 0 381 -23 437 -33 81
-108 160 -190 200 l-67 33 -375 2 c-350 2 -379 1 -435 -17z m831 -127 c59 -31
110 -93 128 -154 23 -77 23 -671 0 -748 -18 -61 -69 -123 -128 -154 -40 -21
-54 -22 -393 -25 -229 -2 -366 1 -392 8 -61 16 -122 68 -153 129 l-28 55 0
361 0 361 28 54 c15 30 43 67 63 83 71 56 82 57 474 54 348 -2 361 -3 401 -24z"/>
<path d="M1255 1165 c-54 -53 -16 -145 58 -145 24 0 42 8 61 26 55 55 18 144
-59 144 -25 0 -44 -8 -60 -25z"/>
<path d="M840 1074 c-145 -53 -233 -177 -233 -329 0 -98 31 -175 97 -240 79
-78 131 -100 246 -100 113 0 162 18 238 89 73 68 107 148 107 251 0 67 -5 90
-29 142 -33 73 -104 144 -174 175 -63 29 -190 35 -252 12z m205 -123 c139 -63
178 -241 77 -353 -47 -52 -102 -78 -170 -78 -130 0 -225 95 -225 225 0 94 52
173 138 211 44 19 133 17 180 -5z"/>
<path d="M2230 1110 l0 -300 70 0 70 0 0 109 0 108 78 5 c133 8 199 63 209
175 4 47 0 66 -19 102 -44 85 -88 100 -280 101 l-128 0 0 -300z m263 162 c12
-12 20 -34 20 -52 0 -45 -31 -72 -92 -78 l-51 -5 0 83 0 83 51 -5 c33 -4 58
-12 72 -26z"/>
<path d="M2787 1190 c-80 -25 -137 -104 -137 -190 0 -136 121 -223 267 -190
51 11 123 59 123 81 0 5 -20 19 -45 31 -44 21 -45 21 -66 2 -32 -29 -105 -26
-130 5 -39 47 -30 51 116 51 l135 0 0 38 c-1 56 -33 117 -79 147 -44 29 -134
42 -184 25z m121 -97 c26 -35 15 -43 -54 -43 -62 0 -65 1 -62 22 6 45 86 59
116 21z"/>
<path d="M3295 1188 c-11 -6 -30 -20 -42 -31 l-23 -20 0 26 c0 27 -1 27 -65
27 l-65 0 0 -190 0 -190 65 0 65 0 0 115 c0 111 1 117 26 141 25 26 61 29 104
10 12 -5 22 8 42 48 l27 54 -31 11 c-39 14 -77 14 -103 -1z"/>
<path d="M3539 1191 c-46 -15 -69 -31 -84 -61 -35 -67 -8 -120 81 -162 44 -20
64 -36 64 -48 0 -29 -40 -32 -91 -7 l-47 23 -23 -43 c-23 -42 -23 -43 -4 -57
52 -39 181 -44 246 -10 33 16 59 61 59 99 0 50 -28 85 -88 111 -81 35 -87 40
-87 55 0 16 64 19 102 6 19 -7 25 -2 43 32 20 40 20 40 0 51 -27 14 -139 22
-171 11z"/>
<path d="M3908 1188 c-52 -14 -113 -70 -134 -123 -46 -122 34 -242 173 -261
153 -20 279 90 257 226 -20 123 -155 196 -296 158z m133 -127 c60 -60 20 -151
-67 -151 -40 0 -74 42 -74 90 0 84 82 119 141 61z"/>
<path d="M4440 1189 c-13 -5 -33 -17 -42 -26 -17 -15 -18 -15 -18 5 0 20 -5
22 -65 22 l-65 0 0 -190 0 -190 65 0 65 0 0 119 c0 133 9 156 67 167 26 5 37
1 57 -19 25 -25 26 -31 26 -147 l0 -120 65 0 65 0 0 143 c0 159 -10 191 -70
222 -40 20 -118 28 -150 14z"/>
<path d="M4824 1189 c-18 -5 -48 -27 -67 -48 -118 -131 -36 -341 134 -341 14
0 47 11 72 24 44 22 47 22 47 5 0 -17 8 -19 65 -19 l65 0 0 190 0 190 -65 0
c-51 0 -65 -3 -65 -15 0 -19 2 -19 -45 5 -41 21 -89 24 -141 9z m139 -111 c34
-18 46 -39 47 -81 0 -51 -35 -87 -85 -87 -50 0 -85 36 -85 88 0 71 63 112 123
80z"/>
<path d="M1930 550 l0 -300 70 0 70 0 0 300 0 300 -70 0 -70 0 0 -300z"/>
<path d="M2970 700 c0 -68 -1 -70 -25 -70 -23 0 -25 -3 -25 -50 0 -47 2 -50
25 -50 25 0 25 -1 25 -90 0 -134 29 -186 108 -197 45 -6 112 12 111 30 0 7 -6
28 -13 47 -10 27 -20 36 -42 40 -29 5 -29 5 -32 88 l-3 82 41 0 40 0 0 50 0
50 -40 0 -40 0 0 70 0 70 -65 0 -65 0 0 -70z"/>
<path d="M2330 629 c-13 -5 -33 -17 -42 -26 -17 -15 -18 -15 -18 5 0 20 -5 22
-65 22 l-65 0 0 -190 0 -190 65 0 65 0 0 119 c0 133 9 156 67 167 26 5 37 1
57 -19 25 -25 26 -31 26 -147 l0 -120 65 0 65 0 0 143 c0 159 -10 191 -70 222
-40 20 -118 28 -150 14z"/>
<path d="M2699 631 c-46 -15 -69 -31 -84 -61 -35 -67 -8 -120 81 -162 44 -20
64 -36 64 -48 0 -29 -40 -32 -91 -7 l-47 23 -23 -43 c-23 -42 -23 -43 -4 -57
52 -39 181 -44 246 -10 33 16 59 61 59 99 0 50 -28 85 -88 111 -81 35 -87 40
-87 55 0 16 64 19 102 6 19 -7 25 -2 43 32 20 40 20 40 0 51 -27 14 -139 22
-171 11z"/>
<path d="M3314 629 c-18 -5 -48 -27 -67 -48 -118 -131 -36 -341 134 -341 14 0
47 11 72 24 44 22 47 22 47 5 0 -17 8 -19 65 -19 l65 0 0 190 0 190 -65 0
c-51 0 -65 -3 -65 -15 0 -19 2 -19 -45 5 -41 21 -89 24 -141 9z m139 -111 c34
-18 46 -39 47 -81 0 -51 -35 -87 -85 -87 -50 0 -85 36 -85 88 0 71 63 112 123
80z"/>
<path d="M3804 629 c-66 -19 -124 -113 -124 -199 1 -82 73 -172 150 -185 47
-8 127 1 135 16 11 17 25 9 25 -15 0 -14 -11 -38 -24 -53 -20 -23 -32 -28 -69
-28 -31 0 -55 7 -74 21 l-29 21 -53 -26 -53 -27 27 -32 c45 -54 79 -66 180
-66 98 0 129 10 178 61 15 16 32 45 37 64 6 18 10 127 10 241 l0 208 -65 0
c-50 0 -65 -3 -65 -15 0 -11 -8 -11 -42 5 -46 21 -94 24 -144 9z m161 -124
c56 -55 18 -155 -60 -155 -90 0 -120 125 -40 168 34 19 74 14 100 -13z"/>
<path d="M4375 628 c-11 -6 -30 -20 -42 -31 l-23 -20 0 26 c0 27 -1 27 -65 27
l-65 0 0 -190 0 -190 65 0 65 0 0 115 c0 111 1 117 26 141 25 26 61 29 104 10
12 -5 22 8 42 48 l27 54 -31 11 c-39 14 -77 14 -103 -1z"/>
<path d="M4624 629 c-18 -5 -48 -27 -67 -48 -118 -131 -36 -341 134 -341 14 0
47 11 72 24 44 22 47 22 47 5 0 -17 8 -19 65 -19 l65 0 0 190 0 190 -65 0
c-51 0 -65 -3 -65 -15 0 -19 2 -19 -45 5 -41 21 -89 24 -141 9z m139 -111 c34
-18 46 -39 47 -81 0 -51 -35 -87 -85 -87 -50 0 -85 36 -85 88 0 71 63 112 123
80z"/>
<path d="M5200 629 c-13 -6 -33 -17 -42 -26 -17 -15 -18 -15 -18 5 0 20 -5 22
-65 22 l-65 0 0 -190 0 -190 65 0 65 0 0 125 c0 112 2 127 20 145 26 26 51 25
84 -1 26 -20 26 -22 26 -145 l0 -124 65 0 65 0 0 125 c0 112 2 127 20 145 11
11 29 20 40 20 11 0 29 -9 40 -20 18 -18 20 -33 20 -145 l0 -125 65 0 65 0 0
143 c0 162 -11 198 -70 229 -60 31 -128 20 -174 -31 -19 -20 -20 -20 -32 -2
-30 43 -117 63 -174 40z"/>
</g>
</svg>
