<?xml version="1.0" standalone="no"?>
<!DOCTYPE svg PUBLIC "-//W3C//DTD SVG 20010904//EN"
 "http://www.w3.org/TR/2001/REC-SVG-20010904/DTD/svg10.dtd">
<svg version="1.0" xmlns="http://www.w3.org/2000/svg"
 width="78" viewBox="0 0 620.000000 170.000000"
 preserveAspectRatio="xMidYMid meet">

<g transform="translate(0.000000,170.000000) scale(0.100000,-0.100000)"
fill="#000000" stroke="none">
<path d="M170 1466 c0 -100 9 -138 41 -172 19 -20 19 -21 -2 -40 -12 -10 -33
-41 -47 -69 -23 -43 -27 -63 -27 -135 0 -73 4 -92 27 -135 14 -27 42 -66 62
-84 25 -24 36 -44 36 -63 0 -15 -2 -28 -5 -28 -3 0 -32 14 -65 30 -33 17 -65
30 -71 30 -8 0 -10 -36 -8 -123 4 -115 6 -126 32 -166 17 -26 45 -50 73 -63
36 -18 46 -29 55 -61 14 -51 71 -112 122 -131 23 -8 74 -18 112 -21 78 -8 128
-25 162 -57 l23 -21 23 21 c34 32 84 49 162 57 39 3 89 13 112 21 51 19 108
80 122 131 9 32 19 43 55 61 28 13 56 37 73 63 26 40 28 51 32 166 2 73 -1
123 -6 123 -6 0 -34 -13 -64 -30 -67 -37 -79 -37 -79 -4 0 17 17 44 49 80 63
69 85 132 79 223 -5 70 -38 150 -77 185 -21 19 -21 20 -2 40 32 34 41 72 41
172 0 52 -2 94 -4 94 -2 0 -111 -52 -241 -116 -187 -92 -241 -123 -254 -145
-9 -16 -18 -29 -21 -29 -3 0 -13 14 -22 30 -14 24 -61 51 -253 145 -130 63
-239 115 -241 115 -2 0 -4 -42 -4 -94z m357 -231 c32 -16 61 -41 79 -67 26
-37 29 -50 29 -118 0 -68 -3 -81 -29 -118 -77 -112 -243 -121 -333 -19 -69 79
-70 188 -1 271 63 77 163 97 255 51z m508 6 c128 -58 164 -223 72 -328 -118
-134 -348 -67 -365 107 -7 73 4 112 45 160 65 76 163 100 248 61z m-299 -306
c16 -24 15 -28 -11 -80 -14 -30 -30 -55 -35 -55 -5 0 -21 25 -35 55 -26 52
-27 56 -11 80 11 17 26 25 46 25 20 0 35 -8 46 -25z m-315 -350 c184 -92 234
-122 247 -145 9 -17 19 -30 22 -30 3 0 13 13 22 30 13 23 63 53 247 145 127
63 236 115 242 115 17 0 5 -124 -15 -155 -11 -17 -95 -65 -256 -145 l-240
-120 -240 120 c-161 80 -245 128 -256 145 -20 31 -32 155 -15 155 6 0 115 -52
242 -115z"/>
<path d="M372 1027 c-63 -67 12 -175 94 -135 85 40 59 158 -34 158 -27 0 -45
-7 -60 -23z"/>
<path d="M890 1030 c-45 -45 -33 -111 24 -138 56 -28 116 12 116 76 0 27 -7
45 -23 60 -30 29 -89 30 -117 2z"/>
<path d="M2580 1491 c-163 -106 -145 -24 -148 -662 l-2 -549 135 0 135 0 0
195 0 195 43 0 c29 0 49 -6 59 -17 8 -10 52 -88 97 -173 45 -85 93 -165 107
-178 24 -21 34 -22 165 -22 78 0 139 4 137 8 -13 33 -264 445 -284 467 l-25
27 30 27 c17 14 85 100 151 191 l119 165 -140 3 c-77 1 -147 -2 -157 -7 -9 -5
-62 -76 -117 -158 l-100 -148 -42 -3 -43 -3 0 355 c0 196 -3 356 -7 356 -5 0
-55 -31 -113 -69z"/>
<path d="M5352 1484 c-87 -57 -117 -83 -128 -109 -11 -28 -14 -129 -14 -565
l0 -530 109 0 c102 0 111 2 125 22 9 12 16 30 16 40 0 25 7 23 48 -13 54 -47
97 -62 183 -62 92 0 163 29 234 94 89 82 134 191 142 344 11 218 -66 388 -206
457 -37 18 -62 23 -126 22 -87 -1 -149 -22 -211 -69 -18 -14 -35 -25 -38 -25
-3 0 -6 106 -6 235 0 129 -3 235 -8 235 -4 0 -58 -34 -120 -76z m377 -530 c46
-39 64 -112 59 -243 -4 -120 -27 -185 -79 -222 -57 -40 -143 -35 -203 12 l-26
20 0 187 c0 162 3 190 18 209 53 67 173 86 231 37z"/>
<path d="M1939 1180 c-76 -13 -145 -49 -193 -100 -55 -58 -69 -105 -65 -202 7
-132 65 -188 259 -253 119 -40 150 -61 150 -105 0 -74 -122 -95 -232 -40 -96
49 -119 41 -183 -58 -26 -40 -27 -43 -11 -61 28 -30 132 -72 219 -87 183 -32
369 34 431 154 25 49 37 138 25 194 -20 93 -89 147 -256 202 -142 47 -184 94
-129 145 38 35 90 37 179 6 107 -37 123 -33 171 39 l39 59 -24 19 c-44 35
-143 77 -209 87 -73 12 -104 12 -171 1z"/>
<path d="M3638 1180 c-179 -32 -295 -129 -348 -290 -19 -56 -22 -82 -18 -185
3 -109 7 -126 35 -188 86 -182 275 -277 493 -247 236 32 380 208 380 463 0
164 -72 307 -192 383 -85 54 -245 83 -350 64z m144 -200 c49 -14 94 -70 109
-135 18 -81 8 -241 -19 -292 -69 -132 -254 -117 -309 25 -25 65 -25 229 0 293
37 96 118 137 219 109z"/>
<path d="M4578 1179 c-186 -27 -326 -168 -359 -362 -41 -244 79 -461 290 -528
138 -44 323 -22 434 52 215 142 250 514 66 713 -52 57 -161 112 -249 126 -73
11 -101 11 -182 -1z m186 -217 c18 -10 41 -38 56 -67 23 -45 25 -62 25 -170 0
-108 -2 -125 -25 -170 -32 -64 -75 -90 -150 -90 -67 0 -120 29 -144 79 -57
121 -41 348 29 406 50 41 149 47 209 12z"/>
</g>
</svg>
